<svg xmlns="http://www.w3.org/2000/svg" width="272.518" height="273.915" viewBox="0 0 272.518 273.915"><defs><style>.a{fill:#fff;}</style></defs><path class="a" d="M61.785,7.061S67.394.608,72.912,1.016c0,0,2.437-1.547,6.885-.824s5.534,2.237,5.534,2.237,9.94-1.766,16.587,4.882,5.9,8.941,5.9,8.941,7.952-1.443,12.748,3.849,6.207,8.938,5.635,13.364c0,0,8.437,1.449,11.723,9.041s2.557,11.715,2.557,11.715,8.52,10.595,9.5,16.988-2.381,7.643-2.381,7.643,5.733,7.266,6.081,11.836a19.3,19.3,0,0,1-2.656,11.152c-1.51,2.453-4.251,4.154-3.748,9.027s.114,12.652-1.849,15.718a28.214,28.214,0,0,1-2.722,3.835s.834,7.462-5.072,14.985-7.9,7.54-7.9,7.54l1.4,2.884L129,157.069s-1.992-.135-1.835.321.191,4.267.191,4.267l.476,1.825s2.918.889,3.092,3.174-2.706,5.664-2.706,5.664l-.088,7.165s3.078,1.649,3.4,3.781-2.859,5.666-2.859,5.666l.378,7.923.171,1.98-6.263,1.886s.658,5.024-.393,7.321-3.63,5.063-8.36,7.087-18.8,4.436-21.889,1.567a16.827,16.827,0,0,1-4.189-5.907l-4.893.959s-3.674.185-4.31-2.4a11.1,11.1,0,0,1,.258-5.338l-2.039-5.317s-3.215.181-3.848-2.1,1.955-3.981,1.955-3.981l-2.5-5.77s-3.832-.27-4.306-1.943a9.809,9.809,0,0,1,.268-4.271l1.065-.772-1.87-3.49-2.754.33s-3.382-1.342-3.257-4.544c0,0-12.729-1.715-19.376-8.515a71.857,71.857,0,0,1-10.384-13.474s-2.973-6.986-5.433-8.031-8.291-2.212-11.389-6-5.12-7.271-4.544-11.24a31.617,31.617,0,0,0,.4-6.254,6.783,6.783,0,0,1-5.243-3.916c-1.41-3.494-2.543-10.191-1.867-20.105A24.365,24.365,0,0,1,.1,79.412C.941,70.868,5.057,68.7,5.057,68.7S-.2,62.952,2.777,53.779s8.344-8.916,8.344-8.916-3.749-8.046.636-14.335a35.048,35.048,0,0,1,10.634-9.7s1.794-4.894,5-6.295a14.2,14.2,0,0,1,4.889-1.416,10.352,10.352,0,0,1,6.564-2.5,13.29,13.29,0,0,1,8.453,3.125c.774.908,3.23,1.5,3.23,1.5l6.023,5.434s2.376-8.253,3.59-9.483,1.647-4.131,1.647-4.131" transform="translate(64.985 54.504)"/><path d="M16.955,7.171a14.025,14.025,0,0,0-3.067-4.242A10.3,10.3,0,0,0,4.922.161,10.092,10.092,0,0,0,0,2.35c-.009.008,0,.021.012.016A10.059,10.059,0,0,1,5.579.759,11.874,11.874,0,0,1,11,2.356a11.565,11.565,0,0,1,4.048,3.992,12.789,12.789,0,0,1,1.234,2.613c.344,1,.448,2.02.691,3.039.138.577,1.107.881,1.174.138a10.326,10.326,0,0,0-1.192-4.967" transform="translate(148.138 63.588)"/><path d="M57.1,31.555A22.887,22.887,0,0,0,54,25a19.874,19.874,0,0,0-5.056-5.109,10.554,10.554,0,0,0-6.121-2.184,13.45,13.45,0,0,0-.594-5.437A18.082,18.082,0,0,0,39.757,7.05,16.135,16.135,0,0,0,30.98.706,12.159,12.159,0,0,0,25.011.192c-1.028.241-.392,1.809.512,1.762,1.013-.053,2.024-.171,3.042-.165a10.373,10.373,0,0,1,3.021.538,14.629,14.629,0,0,1,5.342,3.054,16.148,16.148,0,0,1,3.984,5.607,23.112,23.112,0,0,1,1.525,6.744c-.094.008-.187.015-.281.027a5.806,5.806,0,0,0-4.831,3.932c-1.76.4-3.838,1.059-5.643.292-1.618-.688-2.511-2.342-3.12-3.994-1.242-3.371-1.592-7.275-4.579-9.569C20.5,5.742,16.354,6.754,12.715,7.884,10.4,8.6,8.152,9.438,5.672,9.339A7.039,7.039,0,0,1,.083,6.514C.056,6.475-.022,6.5.006,6.549,1.85,9.923,5.874,10.783,9.1,10.324c2.319-.33,4.507-1.135,6.778-1.658a12.834,12.834,0,0,1,5.581-.116,6.1,6.1,0,0,1,4.182,3.165,24.683,24.683,0,0,1,1.813,5.345,11.369,11.369,0,0,0,2.1,4.574,6.135,6.135,0,0,0,4.679,2.039c3.418.035,8.114-2.68,10.53,1.516.289.5,1.175.332,1.064-.306a4.484,4.484,0,0,0-3.4-3.26,9.456,9.456,0,0,0-4.661-.025,6.51,6.51,0,0,1,4.382-2.777c2.12-.221,4.293.978,6.044,2.269A20.339,20.339,0,0,1,55.325,31.32a19.816,19.816,0,0,1,.738,3.411c.076.592.129,1.188.148,1.783a7.911,7.911,0,0,0,.133,1.906c.176.625,1.067,1.052,1.383.345a7.453,7.453,0,0,0,.109-3.557,21.457,21.457,0,0,0-.738-3.653" transform="translate(149.535 70.575)"/><path d="M6.2,7.722a5.143,5.143,0,0,0-3.251.164,11.309,11.309,0,0,0,.36-2.212,11.555,11.555,0,0,0-.2-2.99,7.913,7.913,0,0,0-.429-1.431A9.344,9.344,0,0,0,1.933.014a.026.026,0,0,0-.047.021,6.053,6.053,0,0,1,.147.92c.033.191.089.38.125.571.085.451.165.909.216,1.364A10.347,10.347,0,0,1,2.33,5.533,9.586,9.586,0,0,1,1.625,8,7.64,7.64,0,0,1,1.046,9.11a4.093,4.093,0,0,0-.536.657,3.048,3.048,0,0,0-.35.451.786.786,0,0,0-.106.593c-.019.077-.035.155-.048.235-.094.59.855,1.15,1.18.622.117-.189.227-.381.336-.572a4.021,4.021,0,0,0,.454-.779A5.11,5.11,0,0,1,3.1,8.971a4.672,4.672,0,0,1,3.111-1.05c.123.005.1-.172-.006-.2" transform="translate(179.582 76.864)"/><path d="M3.8,1.237a.738.738,0,0,0-.6-.2A2.621,2.621,0,0,0,2.846.275.606.606,0,0,0,1.762.416,8.456,8.456,0,0,0,1.85,2.421,10.877,10.877,0,0,1,1.665,4.44,8.222,8.222,0,0,1,.021,8.278c-.079.094.08.2.164.131A8.252,8.252,0,0,0,2.893,4.762a9.481,9.481,0,0,0,.4-1.714,10.813,10.813,0,0,1,1.29,2.88,9.237,9.237,0,0,1,.034,4.324,9.014,9.014,0,0,1-1.68,3.455A19.245,19.245,0,0,1,.076,16.333c-.223.189.135.482.345.432,2.812-.678,4.848-3.586,5.543-6.213.783-2.961.187-6.979-2.163-9.315" transform="translate(194.256 98.526)"/><path d="M34.047,23.1a14.55,14.55,0,0,0-.979-6.8A35.993,35.993,0,0,0,26.647,4.749a28.842,28.842,0,0,0-2.43-2.6A21.973,21.973,0,0,0,21.461.015c-.084-.056-.14.062-.077.131,1.3,1.438,2.539,2.979,3.725,4.532a44.069,44.069,0,0,1,3.239,4.988,37.169,37.169,0,0,1,2.49,5.353,19.462,19.462,0,0,1,1.51,6.065,6.72,6.72,0,0,1-.512,2.9A4.938,4.938,0,0,1,30.6,25.563a5.955,5.955,0,0,1-.679-2.411c-.016-.274-.466-.42-.551-.142-.812,2.66,1.377,5.241,2.857,7.153a17.057,17.057,0,0,1,3.275,6.714,16.145,16.145,0,0,1,.051,7.353,17.263,17.263,0,0,1-3.331,6.257,12.756,12.756,0,0,0-2.6,4.985,29.745,29.745,0,0,0-1.313-2.746c-.04-.075-.2-.1-.17.026a46.529,46.529,0,0,1,1.2,6.546,36.909,36.909,0,0,1,.289,6.778c-.235,3.821-1.232,7.948-4,10.339a7.543,7.543,0,0,1-4.188,1.831,27.442,27.442,0,0,0-.787-4.008c-.018-.075-.136-.088-.124,0a15.086,15.086,0,0,1-.094,4.029c-.047,0-.092,0-.139-.006-1.032-.073-.964,1.442-.178,1.856-.043.218-.087.433-.132.644a18.186,18.186,0,0,1-2.2,5.762A14.242,14.242,0,0,1,8,93.339a14.967,14.967,0,0,1-6.88-.58.876.876,0,0,0-1.117.761A1.274,1.274,0,0,0,.923,94.8,14.78,14.78,0,0,0,14.154,93.3a16.649,16.649,0,0,0,7.052-11.2,16.365,16.365,0,0,0,.23-1.772c3.643.169,6.755-2.553,8.337-6.058,1.832-4.058,1.986-9.09,1.316-13.629a20.15,20.15,0,0,0-.424-2.09.53.53,0,0,0,.458-.592c-.029-2.42,1.329-4.375,2.6-6.132a19.318,19.318,0,0,0,3.363-6.282A18.041,18.041,0,0,0,34.935,31.01c-.893-1.328-2.158-2.477-3.195-3.754,1.306-.712,2.067-2.679,2.307-4.156" transform="translate(181.679 107.61)"/><path d="M26.508,5.97a14.185,14.185,0,0,1-3.526,3.375,8.869,8.869,0,0,1-4.414,1.26,10.083,10.083,0,0,1-4.432-.944,11.666,11.666,0,0,1-2.115-1.295c-.231-.175-.454-.379-.678-.583A8.646,8.646,0,0,0,17.51,3.271c.427-.869-.979-1.773-1.528-1.06a10.423,10.423,0,0,1-3.689,3.229,8.1,8.1,0,0,1-4.5.727A10.079,10.079,0,0,1,.218.082C.159-.054-.039-.013.007.143A10.859,10.859,0,0,0,7.727,7.75a8.686,8.686,0,0,0,2.722.162,8.729,8.729,0,0,0,.966,1.176A11.341,11.341,0,0,0,13.625,10.9a10.266,10.266,0,0,0,5.168,1.67c3.571.151,7.714-2.028,9.1-5.637.315-.817-.862-1.617-1.389-.964" transform="translate(157.921 191.461)"/><path d="M6.026.4A.622.622,0,0,0,5.041.155c-.383.369-.405,1.123-.628,1.622A4.813,4.813,0,0,1,3.379,3.251,5.256,5.256,0,0,1,.091,4.835c-.13.01-.114.185.007.214a4.766,4.766,0,0,0,4.014-.826A7.7,7.7,0,0,0,4.4,5.738,4.186,4.186,0,0,0,6.178,8.375a.072.072,0,0,0,.11-.069,24.516,24.516,0,0,0-.683-2.658A10.36,10.36,0,0,1,5.628,2.7a.6.6,0,0,0-.022-.222A2.471,2.471,0,0,0,6.026.4" transform="translate(150.234 67.081)"/><path d="M7.454,4.169a12.386,12.386,0,0,0-1.952-.7,18.9,18.9,0,0,1-1.9-.9A16.19,16.19,0,0,1,.015,0C.008,0-.005,0,0,.014a15.65,15.65,0,0,0,3.262,3.1A12.466,12.466,0,0,0,5.3,4.24a5.109,5.109,0,0,0,2.082.649c.4-.025.392-.522.076-.719" transform="translate(147.439 60.094)"/><path d="M17.5,3.695A10.736,10.736,0,0,0,7.8.14,9.547,9.547,0,0,0,2.716,2.87,8.788,8.788,0,0,0,0,8.247c-.034.624.922,1.084,1.175.442A13.765,13.765,0,0,1,3.512,4.3,8.537,8.537,0,0,1,7.5,1.76,9.352,9.352,0,0,1,16.573,4.5c2.761,2.909,3.369,7.3,2.968,11.109-.425,4.044-2.04,7.7-3.47,11.375A64.972,64.972,0,0,0,13.9,33.207a21.556,21.556,0,0,0-.641,3.1c-.143,1.147-.118,2.3-.156,3.457,0,.067.108.1.11.027a22.994,22.994,0,0,1,1.467-6.3c.668-2.013,1.513-3.945,2.37-5.865,1.72-3.855,3.457-7.9,3.839-12.266.353-4.031-.608-8.561-3.4-11.662" transform="translate(143.247 120.187)"/><path d="M6.936,0A17.2,17.2,0,0,0,4.614.708a7.826,7.826,0,0,0-1.978,1.33A7.88,7.88,0,0,0,.015,6.288c-.148.662.848.953,1.126.434a21.99,21.99,0,0,1,2.366-3.78A9.907,9.907,0,0,1,6.966.074C7.011.056,6.978-.01,6.936,0" transform="translate(146.042 135.56)"/><path d="M14.92,7.976C13.7,3.617,10.154.118,5.873,0A6.6,6.6,0,0,0,.107,2.775c-.419.617.492,1.363.967.846a6.76,6.76,0,0,1,9.335-.481c3.014,2.534,4.044,6.8,3.534,10.6a14.248,14.248,0,0,1-.865,3.3,15.252,15.252,0,0,1-1.434,3.143c-.033.047.04.108.074.065a18.751,18.751,0,0,0,1.961-2.541,13.842,13.842,0,0,0,1.254-3.153,12.363,12.363,0,0,0-.013-6.579" transform="translate(165.607 169.101)"/><path d="M6.571,4.259a15.111,15.111,0,0,0-1.8-.46,8.847,8.847,0,0,1-1.733-.827A8.664,8.664,0,0,1,.065.018C.044-.017-.016,0,0,.047a10.682,10.682,0,0,0,2.515,3.64,7.953,7.953,0,0,0,1.8,1.228,4.16,4.16,0,0,0,2.119.661.7.7,0,0,0,.133-1.318" transform="translate(129.97 97.128)"/><path d="M14.36,8A13.333,13.333,0,0,0,5.857.429,8.8,8.8,0,0,0,.031.562C-.027.586,0,.674.063.671A12.9,12.9,0,0,1,9.287,3.647a14.237,14.237,0,0,1,4.447,9.337,14.859,14.859,0,0,1-.714,6.009c-.116.362.423.792.643.444A12.859,12.859,0,0,0,14.36,8" transform="translate(190.763 139.054)"/><path d="M5.772,6.46A17.408,17.408,0,0,0,3.707,2.9,16.718,16.718,0,0,0,2.324,1.3,4.281,4.281,0,0,0,.639.021.483.483,0,0,0,.054.687,5.666,5.666,0,0,0,1.282,2a14.592,14.592,0,0,1,1.3,1.458A15.938,15.938,0,0,1,4.619,6.882a20.2,20.2,0,0,1,1.19,3.7q.113.5.218,1.013a12.637,12.637,0,0,0-4.4-3.655c-1.037-.5-1.564.808-.615,1.391a13.317,13.317,0,0,1,6.025,7.817A12.389,12.389,0,0,1,5.6,26.538,13.011,13.011,0,0,1,1.88,30.61c-.068.048.005.158.08.132A10.754,10.754,0,0,0,8.7,23.236,13.392,13.392,0,0,0,6.848,12.771a9.54,9.54,0,0,0,.03-2.3A14.246,14.246,0,0,0,5.772,6.46" transform="translate(198.449 109.706)"/><path d="M5.224.008A12.847,12.847,0,0,0,0,10.478a14.61,14.61,0,0,0,1.294,6.2A31.393,31.393,0,0,0,5.869,23.1c1.986,2.436,3.911,5.236,4.112,8.5.038.617,1.046.773,1.129.131C11.815,26.3,6.987,22.808,4,18.992a.587.587,0,0,0-.053-.145,9.228,9.228,0,0,1-1.121-5.5A8.265,8.265,0,0,1,5.049,8.326c.037-.035-.03-.1-.067-.072A7.587,7.587,0,0,0,1.93,13.126,9.906,9.906,0,0,0,1.8,15.072a14.682,14.682,0,0,1-.2-9.166A12.2,12.2,0,0,1,5.283.087C5.328.05,5.269-.024,5.224.008" transform="translate(190.763 147.439)"/><path d="M11.78,0C7.293.025,4.722,5.029,3.84,9.4a59.362,59.362,0,0,0-.669,15.852,44.635,44.635,0,0,0,1.143,7.532.355.355,0,0,0-.341.354,22.055,22.055,0,0,1-1.391,5.705A26.892,26.892,0,0,1,1.4,41.352,19.263,19.263,0,0,1,0,43.991c-.014.019.014.041.028.026a17.5,17.5,0,0,0,2.021-2.2,15.979,15.979,0,0,0,1.326-2.536,19.963,19.963,0,0,0,1.382-4.973.016.016,0,0,0,0-.008.016.016,0,0,0,0,0c.046-.308.089-.617.123-.927a.517.517,0,0,0-.241-.494,107.77,107.77,0,0,1-.584-13.935A62.416,62.416,0,0,1,4.8,11.637,18,18,0,0,1,6.924,5.191,7.805,7.805,0,0,1,12.17,1.413C12.975,1.257,12.45,0,11.78,0" transform="translate(160.017 141.15)"/><path d="M26.381,5.26c-3.339-4.245-9.025-6.95-13.442-4.055A7.724,7.724,0,0,0,9.505,7.159c-.06,1.26.2,2.536.109,3.793-.115,1.565-1.082,2.4-2.459,1.963-1.526-.485-2.594-2.061-4.067-2.687a2.385,2.385,0,0,0-3.079.694c-.034.048.039.112.073.069,1.073-1.347,2.9-.315,3.984.609a10.113,10.113,0,0,0,3.1,2.207,2.487,2.487,0,0,0,2.8-.666,4.881,4.881,0,0,0,.816-3,17.377,17.377,0,0,1,.2-3.548,6.387,6.387,0,0,1,1.479-2.767A6.383,6.383,0,0,1,18.334,1.76c2.715.472,5.026,2.34,7.118,4.37a.637.637,0,0,0,.929-.871" transform="translate(173.992 131.368)"/><path d="M.068,0C0-.011-.03.093.039.126A10.852,10.852,0,0,1,4.619,4.3a.327.327,0,0,0-.032-.015A9.711,9.711,0,0,0,2.4,3.842a8.131,8.131,0,0,0-1.059-.055A7.748,7.748,0,0,1,.186,3.9c-.065-.008-.05.1,0,.115a10.7,10.7,0,0,1,1.18.614,10.13,10.13,0,0,0,1.061.379,9.657,9.657,0,0,0,2.19.441A.366.366,0,0,0,5.052,5.1c.032.065.065.128.095.194a12.557,12.557,0,0,1,.659,8.151c-.243.945,1.088,1.758,1.387.8C9.02,8.37,5.584.992.068,0" transform="translate(210.328 141.849)"/><path d="M5.325,4.754A22.924,22.924,0,0,0,2.9,2.229C2.007,1.436,1.036.772.12.02.045-.042-.049.056.031.122a18.833,18.833,0,0,1,3.7,4.668A30.481,30.481,0,0,1,6.272,9.938,25.5,25.5,0,0,1,7.948,21.177a40.071,40.071,0,0,1-1.1,6.439c-.239.945,1.312,1.427,1.718.636A20.683,20.683,0,0,0,10.256,16.2,22.917,22.917,0,0,0,5.325,4.754" transform="translate(192.859 166.306)"/><path d="M4.282,13.6a18.336,18.336,0,0,1-2.9-6.487A30.42,30.42,0,0,1,.918.023C.918,0,.889-.01.88.01-.866,3.863.2,8.589,2.2,12.327c1.041,1.949,2.5,3.922,2.983,6.09A4.973,4.973,0,0,1,3.9,23.18c-.654.595.507,1.583,1.15,1.185a4.7,4.7,0,0,0,1.865-4.838A14.525,14.525,0,0,0,4.282,13.6" transform="translate(200.545 162.812)"/><path d="M10.139.022A10.491,10.491,0,0,0,5.657,4.909,15.321,15.321,0,0,0,4.368,8.432c-.022-.073-.044-.146-.066-.218A29.976,29.976,0,0,0,.177.263C.117.176-.045.22.012.342a50.548,50.548,0,0,1,2.71,8.092c.772,2.817,1.172,5.706,1.817,8.55.112.5.855.734.928.116a16.791,16.791,0,0,0-.1-4.321.543.543,0,0,0,.311-.4A44.11,44.11,0,0,1,7.4,6,37.363,37.363,0,0,1,10.442.376a.244.244,0,0,0-.3-.354" transform="translate(148.138 160.716)"/><path d="M7.6,5.712A15.449,15.449,0,0,0,1.762.012a.1.1,0,0,0-.1.164,18.688,18.688,0,0,1,7.153,11.79A16.406,16.406,0,0,1,5.557,24.518a14.967,14.967,0,0,1-2.364,2.395l-.014.011a16.864,16.864,0,0,1-2,2.045A8.537,8.537,0,0,1,0,30.088a1.227,1.227,0,0,0,1.255.63A11.386,11.386,0,0,0,6.8,26.625a17.413,17.413,0,0,0,3.163-6.439A19.408,19.408,0,0,0,7.6,5.712" transform="translate(182.377 169.101)"/><path d="M12.564,5.466A11.258,11.258,0,0,0,10.382,2.1,7.545,7.545,0,0,0,7,.247C4.676-.322,1.781,0,.18,2.2A.983.983,0,0,0,1.348,3.657C3.1,2.616,4.871,1.866,6.9,2.272A10.032,10.032,0,0,1,9.736,3.308,7.288,7.288,0,0,1,12.449,5.55c.056.088.167.019.115-.084" transform="translate(161.414 83.852)"/><path d="M.284.051C.122-.084-.084.066.036.295a18.526,18.526,0,0,1,1.957,5.53,14.578,14.578,0,0,1-.266,5.882c-.175.683.693,1.231.971.575C4.316,8.455,3.445,2.688.284.051" transform="translate(185.172 96.429)"/><path d="M41.8,0a.128.128,0,0,0-.111.051.128.128,0,0,0,0,.125c.414.894.854,1.792,1.28,2.66.761,1.553,1.547,3.157,2.215,4.794a55.143,55.143,0,0,1,2.541,7.854A61.682,61.682,0,0,1,49.564,31.8a66.63,66.63,0,0,1-.786,7.958,9.858,9.858,0,0,1-.789,1.708,8.466,8.466,0,0,1-1.634,2.066,7.428,7.428,0,0,1-1.133.8l-.113.066a1.531,1.531,0,0,0-.391.284.884.884,0,0,0-.1.142.432.432,0,0,1-.147.171.137.137,0,0,0-.068.165.254.254,0,0,0,.212.191h.011a.727.727,0,0,1,.242.061.949.949,0,0,0,.233.064c.036,0,.074.005.113.005a2.008,2.008,0,0,0,.582-.105,6.544,6.544,0,0,0,1.4-.644,7.214,7.214,0,0,0,1.11-.818,11.938,11.938,0,0,1-.678,1,12.771,12.771,0,0,1-4.336,3.634,11.269,11.269,0,0,1-2.62.942,8.552,8.552,0,0,1-.907.152A8.755,8.755,0,0,0,42.3,45.5a.9.9,0,0,0-.19-.757.824.824,0,0,0-.606-.353.493.493,0,0,0-.42.252,17.109,17.109,0,0,1-2.988,3.705,9.907,9.907,0,0,1-4.174,2.126,8.216,8.216,0,0,1-1.877.21,11,11,0,0,1-2.607-.335,13.34,13.34,0,0,1-2.224-.782,10.915,10.915,0,0,1-1.055-.537c-.123-.071-.253-.139-.39-.211a5.116,5.116,0,0,1-.852-.519.078.078,0,0,0-.116.023.061.061,0,0,0,.016.066,5.033,5.033,0,0,1,.325.422c-.706.068-1.429.1-2.149.1a20.594,20.594,0,0,1-8.081-1.6,20.086,20.086,0,0,1-8.194-6.7,20.7,20.7,0,0,1-1.608-2.551c-.266-.505-.493-1.039-.712-1.556-.19-.448-.386-.91-.607-1.352a15.992,15.992,0,0,1,2.675-.369c.223-.014.455-.02.69-.02a17.067,17.067,0,0,1,2.17.156c.317.04.636.1.945.165.163.032.331.066.5.1.091.016.185.037.276.057a2.946,2.946,0,0,0,.626.094,1.1,1.1,0,0,0,.229-.023.037.037,0,0,0,.028-.023.066.066,0,0,0-.007-.058,4.43,4.43,0,0,0-2.287-1.347l-.273-.1a11.792,11.792,0,0,0-3.149-.606c-.236-.018-.478-.027-.718-.027a11.278,11.278,0,0,0-2.45.284l-.208.045a4.438,4.438,0,0,0-2.7,1.253.713.713,0,0,0-.048.754.889.889,0,0,0,.742.5H.878a3.627,3.627,0,0,0,1.163-.236A18.951,18.951,0,0,0,4.685,40.9a21.488,21.488,0,0,0,3.991,4.454,20.545,20.545,0,0,0,4.992,3.079,17.455,17.455,0,0,0,5.5,1.4c.369.03.742.045,1.109.045a13.86,13.86,0,0,0,4.937-.924.054.054,0,0,0,.016-.011,3.565,3.565,0,0,0,.366.447,11.07,11.07,0,0,0,1.053.929,9.665,9.665,0,0,0,2.363,1.348,10,10,0,0,0,8.4-.375.8.8,0,0,0,.348.14,7.708,7.708,0,0,0,1.159.086,11.836,11.836,0,0,0,5.055-1.3,12.377,12.377,0,0,0,4.792-4.132,14.617,14.617,0,0,0,2.075-4.523,8.757,8.757,0,0,0,1.016-1.59L52,39.725a19.2,19.2,0,0,0,1.063-2.282A21.441,21.441,0,0,0,54.333,32.5a20.147,20.147,0,0,0-1.475-10.555A20.984,20.984,0,0,0,49.634,16.7a54.929,54.929,0,0,0-2.891-8.326A35.464,35.464,0,0,0,41.936.062.181.181,0,0,0,41.8,0ZM51.32,38.06h0a14.527,14.527,0,0,0-.167-2.214A52.227,52.227,0,0,0,51.1,24.728a55.714,55.714,0,0,0-1.259-7.221A20.717,20.717,0,0,1,52.05,36.388C51.843,36.929,51.6,37.476,51.32,38.06Z" transform="translate(176.088 106.212) rotate(180)"/><path d="M4.76,0A6.345,6.345,0,0,0,.517,3.484a5.864,5.864,0,0,0-.5,2.81c.059.913.254,2.23,1.2,2.713.279.142.779.1.884-.227.233-.712-.341-1.569-.438-2.316a6.793,6.793,0,0,1,.134-2.351A5.558,5.558,0,0,1,4.838.169c.113-.044.028-.2-.078-.164" transform="translate(139.054 60.094)"/><path d="M8.328,22.982c-.434-.943-.97-1.843-1.428-2.775q-.647-1.314-1.236-2.655c-.812-1.847-1.545-3.731-2.2-5.64-.661-1.93-1.231-3.9-1.735-5.874S.844,2.058.258.108C.226,0,.005-.062,0,.1A27.07,27.07,0,0,0,.742,6.108a59.981,59.981,0,0,0,1.61,6.022q.947,2.952,2.17,5.8A39.469,39.469,0,0,0,7.261,23.5c.353.555,1.374.153,1.067-.515" transform="translate(137.656 124.38)"/><path d="M29.843,19.3a13.223,13.223,0,0,1-14.648,6.814,13.268,13.268,0,0,1-7.181-4.568,29.057,29.057,0,0,1-4.484-9.191Q2.508,9.318,1.688,6.215C1.412,5.179,1.161,4.136.912,3.092A29.965,29.965,0,0,0,.123.04C.1-.012,0-.017,0,.048A17.235,17.235,0,0,0,.319,2.935c.157.985.356,1.965.56,2.941q.621,2.979,1.46,5.9c1.007,3.513,2.153,7.072,4.294,10.053a14.609,14.609,0,0,0,16.811,5.224,15.06,15.06,0,0,0,7.919-7.091c.445-.854-1.074-1.526-1.52-.667" transform="translate(153.728 181.679)"/><path d="M8.277,24.952A50.283,50.283,0,0,1,1.048,5.967C.744,4.042.573,2.1.4.156.385-.028.045-.068.035.137A39.309,39.309,0,0,0,1.08,10.468a47.712,47.712,0,0,0,3.373,9.885,43.608,43.608,0,0,0,2.871,5.232.572.572,0,1,0,.954-.633" transform="translate(126.476 88.743)"/><path d="M6.95,7.153A12.7,12.7,0,0,0,5.669,4.934a14.483,14.483,0,0,0-1.63-2.057A13.284,13.284,0,0,0,2.145,1.22,20.951,20.951,0,0,0,.013,0C0,0-.006.01,0,.016A15.743,15.743,0,0,1,3.592,3.282,17.834,17.834,0,0,1,5,5.169,23.759,23.759,0,0,1,6.147,7.423c.233.461,1.021.281.8-.27" transform="translate(172.595 151.632)"/><path d="M11.661,12.7A22.179,22.179,0,0,0,9.909,8.814,22.308,22.308,0,0,0,4.56,2.467,21.883,21.883,0,0,0,2.638,1.091,7.907,7.907,0,0,0,.5.017C.022-.11-.168.511.174.787c.666.538,1.479.909,2.192,1.381A22.1,22.1,0,0,1,4.327,3.633a25.247,25.247,0,0,1,3.629,3.7A23.955,23.955,0,0,1,10.7,11.717a22.022,22.022,0,0,1,1.81,5.025c.008.038.073.038.066,0a24.307,24.307,0,0,0-.916-4.041" transform="translate(198.449 109.007)"/><path d="M1.548.437c1.7,3.592,3.429,7.353,6.48,10.011a11.7,11.7,0,0,0,9.747,2.939c.268-.046.346.328.113.439-3.171,1.5-7.029.6-9.908-1.243.036.943.022,1.89.068,2.832.068,1.4.15,2.8.305,4.189a51.545,51.545,0,0,0,1.662,8.546,49.14,49.14,0,0,0,7.6,15.553,67.12,67.12,0,0,0,6.5,7.481c.567.568-.393,1.712-1.046,1.211A36.71,36.71,0,0,1,15.4,44.254c.545,1.98,1.011,3.994,1.53,5.964.78,2.959,1.6,5.912,2.487,8.841q1.307,4.334,2.851,8.591c1.048,2.893,2.227,5.733,3.215,8.647a.9.9,0,0,1-.338,1,18.943,18.943,0,0,0,1.133,2.044,18.575,18.575,0,0,0,3.584,4.105c.516.441-.126,1.423-.671.994a15.686,15.686,0,0,1-3.855-4.414,15.387,15.387,0,0,1-1.172-2.5c-.107-.291-.229-.617-.334-.956A73.7,73.7,0,0,1,20.5,68.447q-1.532-4.261-2.828-8.6c-.859-2.875-1.62-5.769-2.266-8.7a57.006,57.006,0,0,1-1.449-9.084q-1.114-1.8-2.076-3.693A47.17,47.17,0,0,1,6.919,20.991a36.174,36.174,0,0,1-.111-4.928,23.083,23.083,0,0,1,.455-3.974C3.728,9.474,1.515,5.331.051,1.257-.279.337,1.075-.56,1.548.437" transform="translate(128.573 105.513)"/><path d="M.724,32.921A13.418,13.418,0,0,0,13.14,23.576C14.87,17.87,12.664,11.732,8.872,7.2A35.74,35.74,0,0,0,.772.231C.637.144.79-.054.93.014c6.162,3.029,11.545,7.709,13.6,14.112,1.909,5.948.638,12.666-4.47,16.884a13.561,13.561,0,0,1-9.5,3.2c-.886-.066-.623-1.266.169-1.286" transform="translate(167.005 96.429)"/><path d="M.8.007c4.023.636,5.938,4.9,6.916,8.351a30.628,30.628,0,0,0,2.37,6.849,18.2,18.2,0,0,0,4.188,4.951C21,25.828,30.337,27.167,36.916,33.045c3.3,2.951,5.776,7.1,5.707,11.619,0,.061-.108.083-.111.014-.4-9.149-9.858-13.822-17.148-17.07a51.062,51.062,0,0,1-10.882-5.968,21.008,21.008,0,0,1-4.138-4.177A18.349,18.349,0,0,1,7.711,11.67C6.522,7.578,5.3,2.125.363,1.158-.369,1.015.125-.1.8.007" transform="translate(125.079 72.671)"/><path d="M.334.57C3-.982,6.457.91,8.247,2.962c2.437,2.793,2.972,6.681,4.186,10.059A31.534,31.534,0,0,0,24.262,28.082a32.291,32.291,0,0,0,9.946,4.659c.064.017.02.111-.038.1a29.769,29.769,0,0,1-15.986-8.712,31.2,31.2,0,0,1-5.407-7.623C11.2,13.374,10.564,9.923,9.142,6.738A9.527,9.527,0,0,0,5.533,2.323a6.06,6.06,0,0,0-4.91-.64C-.1,1.858-.192.876.334.57" transform="translate(128.573 62.19)"/><path d="M1.662,8.249A7.838,7.838,0,0,0,.1.886C-.226.482.322-.236.729.077c2.332,1.792,2.68,5.746,1.1,8.258-.063.1-.2.038-.162-.087" transform="translate(158.619 104.116)"/><path d="M.621.052A24.7,24.7,0,0,1,5.855,4.139,27.747,27.747,0,0,1,8.08,6.625,8.915,8.915,0,0,1,9.775,9.46c.047.161-.132.423-.309.284a14.767,14.767,0,0,1-1.98-2.216c-.719-.851-1.447-1.689-2.234-2.478a45.367,45.367,0,0,0-5.1-4.3c-.391-.29.055-.935.47-.7" transform="translate(155.824 120.886)"/><path d="M.232,3.565A13.432,13.432,0,0,1,12.561.41c.032.009.014.062-.014.062A18.259,18.259,0,0,0,6.327,1.5,21.943,21.943,0,0,0,.851,4.77c-.667.5-1.163-.687-.62-1.206" transform="translate(161.414 136.958)"/><path d="M.23,10.789A12.488,12.488,0,0,0,2.488,8.864a6.442,6.442,0,0,0,1.27-2.713C4.184,3.834,3.142,1.86,1.7.068,1.675.033,1.722-.015,1.761,0a6.31,6.31,0,0,1,3.09,6.271C4.6,8.441,3.025,11.18.688,11.851c-.683.2-.9-.7-.458-1.062" transform="translate(189.365 120.886)"/><path d="M.039,0a10.143,10.143,0,0,1,7.02,4.262,12.826,12.826,0,0,1,2.2,4.615c.138-.254.285-.5.445-.746.411-.621,1.174-.057.835.57a12.776,12.776,0,0,0-.982,2.356,10,10,0,0,1-.038,1.295.569.569,0,0,1-.355.443,11.806,11.806,0,0,0-.032,3.293,13.337,13.337,0,0,0,.976,3.572c.249.571.556,1.106.859,1.648.314.56.592,1.16.908,1.708.014.025-.021.053-.043.039a5.393,5.393,0,0,1-1.572-1.244,8.953,8.953,0,0,1-1.049-1.664,11.806,11.806,0,0,1-1.224-3.991,12.811,12.811,0,0,1,.438-5.292A12.6,12.6,0,0,0,6.137,4.952a16.369,16.369,0,0,0-2.763-2.86A16.837,16.837,0,0,0,.014.066C-.017.05.009,0,.039,0" transform="translate(178.185 97.128)"/><path d="M1,1.493a29.093,29.093,0,0,0,9.049,3.318c1.213.2,3.295.708,4.271-.366C15.729,2.889,13.287.809,12.166.078c-.043-.028.006-.1.048-.074,1.472.763,3.277,1.666,3.152,3.7-.114,1.847-1.89,2.527-3.429,2.579a19.19,19.19,0,0,1-5.91-.933A19.914,19.914,0,0,1,.251,2.629C-.4,2.18.335,1.135,1,1.493" transform="translate(130.669 98.526)"/><path d="M.089.008C4.078,2.415,8.894.767,13.14,2.145a7.425,7.425,0,0,1,4.37,3.4,6.018,6.018,0,0,1,.026,5.419,5.213,5.213,0,0,1-5.063,2.991c-.593-.063-.4-.894.112-.94a4.791,4.791,0,0,0,4.588-4.335c.188-2.567-1.654-4.5-3.818-5.386C9.05,1.518,3.895,3.238.021.111c-.055-.044.008-.14.068-.1" transform="translate(139.054 108.308)"/><path d="M.135,13.129A13.714,13.714,0,0,1,.4,7.925,10.066,10.066,0,0,1,6.485.847,10.3,10.3,0,0,1,11.871.1a.01.01,0,0,1,0,.02A10.178,10.178,0,0,0,6.257,1.7,11.6,11.6,0,0,0,2.534,5.914,11.239,11.239,0,0,0,1.3,11.425a12.627,12.627,0,0,0,.4,2.859c.26,1.026.735,1.944,1.091,2.932.2.561-.453,1.329-.921.737A10.335,10.335,0,0,1,.135,13.129" transform="translate(83.852 81.755)"/><path d="M.978,52.68a24.249,24.249,0,0,1-.971-7.362,20.643,20.643,0,0,1,1.44-7.173,10.484,10.484,0,0,1,3.908-5.213,14.232,14.232,0,0,1-2.449-5.037,19.159,19.159,0,0,1-.771-5.87A16.493,16.493,0,0,1,6,11.764a11.8,11.8,0,0,1,4.685-3.682c.985-.348,1.305,1.357.528,1.805-.871.5-1.776.949-2.619,1.506a10.125,10.125,0,0,0-2.221,2.1,14.8,14.8,0,0,0-2.789,5.545A16.969,16.969,0,0,0,3.3,26.067a24.534,24.534,0,0,0,2.382,6.676c.082-.044.164-.089.248-.129a5.654,5.654,0,0,1,6.146.791c1.682-.6,3.765-1.162,4.851-2.807.973-1.474.821-3.392.433-5.156-.791-3.6-2.614-7.173-1.372-10.782,1.449-4.211,5.442-5.581,9.08-6.573,2.313-.631,4.636-1.127,6.644-2.558A7.08,7.08,0,0,0,34.834.048c0-.049.079-.072.083-.012.293,3.926-2.588,6.854-5.517,8.2-2.107.971-4.362,1.46-6.534,2.237a12.366,12.366,0,0,0-4.7,2.926A6.243,6.243,0,0,0,16.4,18.415a26.237,26.237,0,0,0,1.385,5.618,12.038,12.038,0,0,1,.73,5.105,6.135,6.135,0,0,1-2.787,4.305c-2.822,1.884-8.2,2.076-7.936,7.025.031.592-.8.925-1.051.311a4.634,4.634,0,0,1,1.066-4.673,9.129,9.129,0,0,1,3.863-2.549,6.28,6.28,0,0,0-5.147-.032c-1.882.957-3.04,3.176-3.8,5.244a21.368,21.368,0,0,0-.4,12.744,21.069,21.069,0,0,0,1.232,3.358c.257.555.536,1.1.842,1.626a8.315,8.315,0,0,1,.921,1.725c.192.638-.318,1.491-.963,1.049a7.828,7.828,0,0,1-2.016-3.025A22.765,22.765,0,0,1,.978,52.68" transform="translate(64.985 90.839)"/><path d="M.617,9.037A4.946,4.946,0,0,1,3.4,7.412,11.75,11.75,0,0,1,1.911,5.689a12.2,12.2,0,0,1-1.444-2.7A8.392,8.392,0,0,1,.052,1.511,9.917,9.917,0,0,1,.006.029.025.025,0,0,1,.056.022,6.4,6.4,0,0,0,.429.9c.076.184.131.378.2.564.172.438.352.878.554,1.3A10.865,10.865,0,0,0,2.649,5.033a9.81,9.81,0,0,0,1.914,1.76,7.63,7.63,0,0,0,1.076.645,4.068,4.068,0,0,1,.8.279,3.014,3.014,0,0,1,.533.2.814.814,0,0,1,.407.457c.057.057.113.115.166.178.4.461-.089,1.463-.643,1.181-.2-.1-.393-.206-.586-.313a4,4,0,0,1-.8-.428,4.984,4.984,0,0,0-1.655-.559,4.449,4.449,0,0,0-3.144.78c-.1.072-.172-.1-.1-.176" transform="translate(73.37 108.308)"/><path d="M.092,1.895a.637.637,0,0,1,.344-.469A2.955,2.955,0,0,1,.294.581.52.52,0,0,1,1.188.165,9.877,9.877,0,0,1,2.2,1.957,12.476,12.476,0,0,0,3.425,3.626a8.773,8.773,0,0,0,3.3,2.529c.11.042.047.214-.053.2a8.119,8.119,0,0,1-4-1.833,10.592,10.592,0,0,1-1.225-1.3,12.224,12.224,0,0,0,.576,3.153,10.713,10.713,0,0,0,2.3,3.787A9.477,9.477,0,0,0,7.448,12.34a17.587,17.587,0,0,0,3.571.867c.27.054.158.488-.027.548-2.485.808-5.585-.715-7.521-2.66C1.289,8.9-.423,5.1.092,1.895" transform="translate(71.274 133.464)"/><path d="M3.829,26.143a14.237,14.237,0,0,1-2.8-6.217A35.482,35.482,0,0,1,.309,6.8,28.71,28.71,0,0,1,.985,3.322,22.01,22.01,0,0,1,2.183.044c.041-.093.151-.024.135.068-.332,1.9-.564,3.862-.742,5.8a43.638,43.638,0,0,0-.085,5.92,36.64,36.64,0,0,0,.746,5.821,19.057,19.057,0,0,0,1.958,5.885,6.58,6.58,0,0,0,1.985,2.149,4.927,4.927,0,0,0,1.888.652,5.832,5.832,0,0,0-.712-2.382c-.133-.238.171-.6.392-.417,2.11,1.784,1.63,5.125,1.4,7.523a16.79,16.79,0,0,0,.806,7.382,15.793,15.793,0,0,0,3.885,6.173A17.082,17.082,0,0,0,20,48.048a12.614,12.614,0,0,1,4.871,2.761,29.222,29.222,0,0,1-.352-3c-.006-.084.121-.19.158-.071a45.542,45.542,0,0,0,2.482,6.118,36.1,36.1,0,0,0,3.376,5.821c2.241,3.067,5.292,5.977,8.922,6.477a7.657,7.657,0,0,0,4.533-.733,26.875,26.875,0,0,1-1.473-3.776c-.025-.073.068-.147.106-.066a14.751,14.751,0,0,0,2.232,3.317c.038-.027.077-.052.115-.08.837-.619,1.588.684,1.142,1.455.153.159.306.315.456.467a17.912,17.912,0,0,0,4.944,3.628,14.364,14.364,0,0,0,11.942.411,15.268,15.268,0,0,0,5.531-4.2.883.883,0,0,1,1.355.031,1.263,1.263,0,0,1-.1,1.562,15.068,15.068,0,0,1-12.029,5.906A16.528,16.528,0,0,1,46.25,68.523a15.94,15.94,0,0,1-1.142-1.356c-3,2.111-7.1,1.518-10.313-.556-3.723-2.4-6.541-6.524-8.4-10.68a19.727,19.727,0,0,1-.757-1.976.528.528,0,0,1-.7-.248c-1.268-2.038-3.466-2.938-5.479-3.722a19.121,19.121,0,0,1-6.211-3.433A17.666,17.666,0,0,1,7.3,33.234c.049-1.592.509-3.236.707-4.865-1.489.111-3.186-1.122-4.179-2.226" transform="translate(69.876 146.042)"/><path d="M.989,19.808a14.367,14.367,0,0,0,4.888,1.006,8.882,8.882,0,0,0,4.479-1.333,10.2,10.2,0,0,0,3.277-3.271,12.011,12.011,0,0,0,1.1-2.3c.1-.281.18-.582.259-.884a8.725,8.725,0,0,1-7.781-.544c-.846-.524-.141-2.09.724-1.77a10.548,10.548,0,0,0,4.946.789,8.124,8.124,0,0,0,4.254-1.845,10.419,10.419,0,0,0,3.133-9.5c-.025-.151.167-.225.215-.063A11.274,11.274,0,0,1,18.068,11a8.739,8.739,0,0,1-2.244,1.644,9.131,9.131,0,0,1-.178,1.561,11.744,11.744,0,0,1-.891,2.8,10.431,10.431,0,0,1-3.505,4.312c-2.977,2.1-7.732,2.482-10.918.094-.722-.541-.155-1.89.658-1.609" transform="translate(134.861 191.461)"/><path d="M15.885,39.036A42.975,42.975,0,0,0,9.762,33.7a.116.116,0,0,1,.113-.2,29,29,0,0,1,7.271,5.26c-.143-.486-.272-.971-.392-1.441a46.449,46.449,0,0,1-.982-5.176c-.475-3.408-.74-6.831-1.208-10.239-.852-6.2-2.41-12.633-6.845-17.225A13.6,13.6,0,0,0,.193.485C-.089.443-.047-.016.218,0c5.068.317,9.382,4.2,12,8.852,3.529,6.264,4.077,13.606,5.074,20.537.287,2,.628,3.988,1.049,5.967.209.984.443,1.968.7,2.943.265,1.017.64,2.01.831,3.043a.81.81,0,0,1-.029.388A38.756,38.756,0,0,1,27.2,56.693a29.54,29.54,0,0,1,1,8.565.936.936,0,0,1-.959.832c4.789,4.546,7.837,11.818,6.788,18.384-.011.07-.118.119-.134.019a34.548,34.548,0,0,0-2.958-9.945,28.226,28.226,0,0,0-6.163-8.273c-.758-.694.016-2.2.873-1.548q.556.425,1.088.9a1.006,1.006,0,0,1-.025-.161,54.063,54.063,0,0,0-.818-7.218,39.872,39.872,0,0,0-2.165-6.979,39.83,39.83,0,0,0-7.846-12.231" transform="translate(119.489 105.513)"/><path d="M.169,32.959a17.044,17.044,0,0,1-.162-2.885,15.633,15.633,0,0,1,1.124-5.416A12.906,12.906,0,0,1,4.083,20.3,10.176,10.176,0,0,1,5.1,19.44C4,19.7,2.9,19.924,1.8,20.1c-.843.133-.942-1.126-.24-1.387,4.5-1.677,9.3-2.408,13.816-4.034A15.815,15.815,0,0,0,24.449,6.8,19.33,19.33,0,0,0,26.486.037c0-.046.067-.053.067,0a18.043,18.043,0,0,1-4.112,11.49c-3.171,3.766-7.658,5.307-12.117,6.534-.816.225-1.636.452-2.459.674a2.7,2.7,0,0,1-.329.3c-.3.222-.6.45-.9.675a14.149,14.149,0,0,0-1.767,1.612A12.371,12.371,0,0,0,2.383,25.3a14.014,14.014,0,0,0-.948,4.789,14.485,14.485,0,0,0,.149,2.454,7.523,7.523,0,0,1,.324,2.581c-.081.359-.554.692-.879.408a4.249,4.249,0,0,1-.861-2.571" transform="translate(88.743 88.044)"/><path d="M3.18,3.117A9.466,9.466,0,0,1,13.97.763a11.484,11.484,0,0,1,5.475,4.344c.4.622-.3,1.5-.826.9a11.013,11.013,0,0,0-9.434-4.03C5.712,2.325,3.03,4.8,1.624,8.238A15.068,15.068,0,0,0,.57,14.633c0,.036-.053.061-.066.02A12.014,12.014,0,0,1,3.18,3.117" transform="translate(101.321 71.973)"/><path d="M.009.667A.543.543,0,0,1,.639.013c.485.107.89.683,1.318.967a4.713,4.713,0,0,0,1.554.659A4.854,4.854,0,0,0,6.851,1.32c.1-.053.183.091.1.17A4.257,4.257,0,0,1,3.449,2.741a7.288,7.288,0,0,1,.558,1.317A3.749,3.749,0,0,1,4,6.951a.067.067,0,0,1-.12,0,23.014,23.014,0,0,1-.846-2.392A10.041,10.041,0,0,0,1.5,2.27a.569.569,0,0,1-.1-.183C.846,1.789.121,1.328.009.667" transform="translate(90.141 86.647)"/><path d="M.041,7.747A12.622,12.622,0,0,1,1.128,6.06a20.19,20.19,0,0,0,.954-1.831A18.58,18.58,0,0,0,3.479.007c0-.01.016-.01.015,0a18.711,18.711,0,0,1-.911,4.509,13.693,13.693,0,0,1-.945,2.1,5.071,5.071,0,0,1-1.2,1.713c-.305.2-.529-.241-.393-.587" transform="translate(89.442 75.466)"/><path d="M.891,14.6a27.249,27.249,0,0,0,.132-6.59C.912,6.925.8,5.848.624,4.771.435,3.644.139,2.544.005,1.409a.714.714,0,0,1,.334-.7V.7C.212.137.961-.318,1.219.287A26.864,26.864,0,0,0,5.09,7.207a19.676,19.676,0,0,0,6.052,4.848c.071.036.036.157-.037.136A14.562,14.562,0,0,1,4.5,8.016a19.685,19.685,0,0,1-2.519-3.3,18.31,18.31,0,0,1,.216,3.12A23.484,23.484,0,0,1,1.022,14.62C1,14.693.877,14.7.891,14.6" transform="translate(89.442 119.489)"/><path d="M.129,8.7A10.261,10.261,0,0,1,6.289.627,9.608,9.608,0,0,1,12.056.285,9.185,9.185,0,0,1,17.3,3.419c.374.51-.173,1.4-.74.987a14.406,14.406,0,0,0-4.381-2.492A8.652,8.652,0,0,0,7.438,1.84,8.948,8.948,0,0,0,1.347,8.9C.642,12.8,2.562,16.836,5,19.849c2.592,3.2,5.967,5.454,9.2,7.816,1.795,1.313,3.585,2.641,5.257,4.137a22.516,22.516,0,0,1,2.25,2.288c.754.9,1.37,1.883,2.042,2.845.039.055-.036.139-.078.08a24.045,24.045,0,0,0-4.713-4.568c-1.673-1.355-3.449-2.549-5.228-3.727-3.573-2.365-7.266-4.885-10-8.378C1.207,17.114-.493,12.778.129,8.7" transform="translate(117.392 127.874)"/><path d="M.026.59A18.615,18.615,0,0,1,2.279.053a8.737,8.737,0,0,1,2.3.056A8.211,8.211,0,0,1,8.925,1.936c.466.4-.19,1.048-.686.806A23.048,23.048,0,0,0,4.344,1.134,10.992,10.992,0,0,0,.04.655.033.033,0,0,1,.026.59" transform="translate(128.573 142.548)"/><path d="M.564,12.885C-.782,8.506.276,3.623,3.789,1.236A6.481,6.481,0,0,1,10.112.523c.685.3.33,1.427-.348,1.24A6.6,6.6,0,0,0,1.7,6.342C.564,10.118,2.02,14.31,4.512,17.286a14.628,14.628,0,0,0,2.517,2.36,15.548,15.548,0,0,0,2.905,1.918c.053.023.025.114-.027.1a18.847,18.847,0,0,1-3.019-1.123,14.138,14.138,0,0,1-2.76-2.023A12.764,12.764,0,0,1,.564,12.885" transform="translate(127.175 180.281)"/><path d="M.019,1.152C-.116.636.494.239.833.628c.531.608.94,1.336,1.445,1.975A17.784,17.784,0,0,0,3.915,4.466,14.32,14.32,0,0,0,7,6.732,10.011,10.011,0,0,1,6.15,4.965,6.826,6.826,0,0,1,5.67,2.531a14.177,14.177,0,0,1,.362-2.5.042.042,0,1,1,.083.014,9.506,9.506,0,0,0,1.01,4.413A12.248,12.248,0,0,0,9.471,7.685a11.158,11.158,0,0,0,7.915-.8c.075-.041.116.081.053.124a11.645,11.645,0,0,1-4.779,1.978,9.995,9.995,0,0,1-3.307-.1.339.339,0,0,1-.164-.031l-.005,0a11.924,11.924,0,0,1-1.66-.469A12.726,12.726,0,0,1,3.049,5.638,10.142,10.142,0,0,1,.019,1.152" transform="translate(134.163 187.269)"/><path d="M.12,7.283a15.829,15.829,0,0,1,1.239-1.4,9.5,9.5,0,0,0,1-1.673A9.42,9.42,0,0,0,3.311.039c0-.042.059-.058.065-.01a11.505,11.505,0,0,1-.227,4.5,8.641,8.641,0,0,1-.856,2.051,4.38,4.38,0,0,1-1.4,1.748C.345,8.594-.262,7.912.12,7.283" transform="translate(124.38 98.526)"/><path d="M9.489,18.742a17.666,17.666,0,0,1-2.414-1.418A19.251,19.251,0,0,1,.048,8.682c-.267-.738.642-1.443,1.073-.657a20.353,20.353,0,0,0,5.624,6.858,18.5,18.5,0,0,0,2.741,1.688.626.626,0,0,1,.58.277,18.139,18.139,0,0,0,4.31,1.364c3.038.554,6.7.222,9.075-1.817a8.807,8.807,0,0,0,2.767-7.881A10.538,10.538,0,0,0,19.76.544c-.307-.116-.141-.616.153-.535a10.275,10.275,0,0,1,6.774,6.7,11.08,11.08,0,0,1-1.146,9.434c-3.143,4.719-9.085,5.206-14.219,3.367a13.717,13.717,0,0,1-.8,11.193.075.075,0,0,1-.135-.067,16.5,16.5,0,0,0-.9-11.9" transform="translate(80.358 124.38)"/><path d="M.2,13.8A12.846,12.846,0,0,1,3.272,2.962,8.853,8.853,0,0,1,8.323,0a.058.058,0,0,1,.033.108A12.627,12.627,0,0,0,2.122,7.472,13.852,13.852,0,0,0,3.487,17.652a15.111,15.111,0,0,0,3.934,4.665c.3.242.077.888-.3.712A13.005,13.005,0,0,1,.2,13.8" transform="translate(91.538 166.306)"/><path d="M.341,8.236A17.165,17.165,0,0,1,.014,4.161,15.807,15.807,0,0,1,.238,2.1,3.911,3.911,0,0,1,.9.157a.506.506,0,0,1,.865.275A5.316,5.316,0,0,1,1.5,2.17a13.788,13.788,0,0,0-.237,1.9,15.713,15.713,0,0,0,.272,3.95,20.915,20.915,0,0,0,1.138,3.762c.13.324.263.65.4.974A11.631,11.631,0,0,1,4.627,7.42c.57-.95,1.758-.1,1.306.879A12.794,12.794,0,0,0,5.425,18a13.693,13.693,0,0,0,6.567,7.3A14.013,14.013,0,0,0,17.4,26.913a.078.078,0,0,1,.01.152,11.552,11.552,0,0,1-9.881-3.027,14.21,14.21,0,0,1-4.465-9.87,10.445,10.445,0,0,1-1.343-1.951A14.891,14.891,0,0,1,.341,8.236" transform="translate(74.768 145.343)"/><path d="M.046,0A13.923,13.923,0,0,1,10.525,5.97a14.032,14.032,0,0,1,2.4,5.772,28.431,28.431,0,0,1-.305,7.634c-.333,3.024-.407,6.317,1.278,9.115.318.528-.466,1.172-.9.685-3.7-4.124-1.507-9.467-1.088-14.142a.558.558,0,0,1-.037-.147A8.876,8.876,0,0,0,9.712,9.773a8.929,8.929,0,0,0-4.781-3c-.052-.01-.031-.1.016-.094a8.322,8.322,0,0,1,5.413,2.46,10.069,10.069,0,0,1,1.222,1.538A14.637,14.637,0,0,0,6.541,3.014,13.407,13.407,0,0,0,.041.1.048.048,0,0,1,.046,0" transform="translate(99.224 175.39)"/><path d="M.331.922c3.917-2.408,8.844.314,11.961,3.428a56.126,56.126,0,0,1,9.1,12.668,41.752,41.752,0,0,1,3.055,6.811.366.366,0,0,1,.487.106,21.268,21.268,0,0,0,4.278,3.937A26.716,26.716,0,0,0,31.59,29.3a19.192,19.192,0,0,0,2.638,1.412c.022.008.01.041-.011.037a18.075,18.075,0,0,1-2.939-.712,15.914,15.914,0,0,1-2.517-1.367,19.327,19.327,0,0,1-3.876-3.34s0,0-.006,0l0,0c-.206-.228-.409-.459-.605-.7a.489.489,0,0,1-.057-.537,101.258,101.258,0,0,0-6.984-11.771,59.3,59.3,0,0,0-4.569-5.608A17.541,17.541,0,0,0,7.347,2.56,8.232,8.232,0,0,0,.752,2.294C-.033,2.6-.254,1.282.331.922" transform="translate(116.694 157.222)"/><path d="M.019,7.9c-.117-.428.324-.914.726-.768a7.9,7.9,0,0,1,1.109.743,3.276,3.276,0,0,0,1.252.395,4.113,4.113,0,0,0,2.418-.481C7.438,6.735,8.59,4.641,9.985,2.979,11.24,1.482,12.918-.039,14.97,0a4.126,4.126,0,0,1,3.894,2.722c.014.043-.036.083-.062.038A3.9,3.9,0,0,0,13.576,1.5C11.617,2.544,10.459,4.612,9.1,6.345,7.871,7.911,6.367,9.391,4.373,9.719,3.042,9.937.5,9.657.019,7.9" transform="translate(108.308 172.595)"/><path d="M.007,10.482C.654,5.284,4.065.057,9.266,0A7.271,7.271,0,0,1,15.2,2.923c.694.977,1.126,2.139,1.845,3.1.9,1.192,2.138,1.341,3.075.249,1.039-1.209,1.134-3.047,2.056-4.341a2.465,2.465,0,0,1,2.95-1.1c.053.02.024.111-.027.095-1.593-.5-2.607,1.309-3.047,2.632a10.141,10.141,0,0,1-1.487,3.436,2.574,2.574,0,0,1-2.7.976,4.461,4.461,0,0,1-2.218-1.961,15.716,15.716,0,0,0-1.984-2.732A5.973,5.973,0,0,0,11,1.852a6.574,6.574,0,0,0-6,1.5C2.956,5.187,1.962,7.928,1.236,10.68c-.189.716-1.337.676-1.228-.2" transform="translate(89.442 159.318)"/><path d="M3.1.016A.067.067,0,0,1,3.2.1,10.656,10.656,0,0,0,1.178,6.18c.008-.01.014-.021.023-.031A11.494,11.494,0,0,1,3.057,4.536a10,10,0,0,1,.989-.648A9.846,9.846,0,0,0,5.221,3.33c.058-.043.105.054.063.1A11.493,11.493,0,0,0,4.5,4.61a11.652,11.652,0,0,1-.8.919A11.424,11.424,0,0,1,1.838,7.142a.432.432,0,0,1-.617-.049c.007.072.011.144.02.216a11.374,11.374,0,0,0,4.038,7.155c.776.648-.041,2.081-.878,1.453C-.728,12.07-1.647,3.978,3.1.016" transform="translate(81.057 178.185)"/><path d="M.105,6.8A22.185,22.185,0,0,1,.72,3.38c.3-1.138.739-2.209,1.083-3.327a.069.069,0,1,1,.132.041A18.479,18.479,0,0,0,1.453,6a30.772,30.772,0,0,0,.764,5.713A26.693,26.693,0,0,0,7.108,22.182a42.856,42.856,0,0,0,4.522,4.93c.728.683-.3,1.9-1.079,1.434a22.073,22.073,0,0,1-8.157-9.418A23.268,23.268,0,0,1,.105,6.8" transform="translate(109.007 190.064)"/><path d="M4.633,13.413A20.062,20.062,0,0,0,3.414,6.367,33.939,33.939,0,0,0,0,.034C-.007.018.008-.009.025,0c3.389,2.43,5.081,7.034,5.533,11.259.235,2.2.161,4.638.943,6.746a5.272,5.272,0,0,0,3.513,3.449c.818.181.451,1.617-.255,1.6C8,23.02,6.54,21.6,5.755,19.843a15.9,15.9,0,0,1-1.123-6.43" transform="translate(102.02 191.461)"/><path d="M.122.006A44.465,44.465,0,0,0,11.89,3.565a28.754,28.754,0,0,0,5.921.1A23.752,23.752,0,0,0,20.8,3.2q.694-.151,1.379-.339a13.7,13.7,0,0,1,1.541-.551.727.727,0,0,1,.39,1.347,6.652,6.652,0,0,1-1.527.375c-.525.127-1.052.246-1.583.345-.971.181-1.952.305-2.938.4a28.837,28.837,0,0,1-6.223-.1A24.107,24.107,0,0,1,.04.21C-.048.143.021-.036.122.006" transform="translate(99.923 148.837)"/><path d="M1.384,6.436a13.127,13.127,0,0,1,4.09-4.308A12.466,12.466,0,0,1,16.718.767a.088.088,0,0,1-.048.168A13.831,13.831,0,0,0,6.165,2.775,12.116,12.116,0,0,0,2.379,6.644,9.826,9.826,0,0,0,1.238,9.288,16.272,16.272,0,0,0,.908,12.2c-.021.3-.483.575-.63.18-.747-2,.147-4.3,1.106-5.944" transform="translate(104.116 114.597)"/><path d="M.222,5.514a11.172,11.172,0,0,1,6.748,1.6A15.277,15.277,0,0,1,10.08,9.362c-.02-.074-.041-.148-.06-.221A28.884,28.884,0,0,1,9.365.106C9.37,0,9.542-.055,9.557.08a48.117,48.117,0,0,0,2.012,8.356c.856,2.812,2.087,5.476,3.072,8.239.171.481-.368,1.1-.775.621a16.018,16.018,0,0,1-2.292-3.7.571.571,0,0,1-.5-.162A43.349,43.349,0,0,0,6,9.018,38.145,38.145,0,0,0,.143,5.983a.248.248,0,0,1,.079-.469" transform="translate(137.656 161.414)"/><path d="M.15,1.87A6.425,6.425,0,0,1,5.283,0a7.606,7.606,0,0,1,5.189,2.1c.019.018.007.063-.02.051A11.1,11.1,0,0,0,5.407,1.116,12.692,12.692,0,0,0,.661,2.744C.133,2.987-.213,2.306.15,1.87" transform="translate(107.61 116.694)"/><path d="M.337,16.879A6.946,6.946,0,0,0,2.858,14.13,10.345,10.345,0,0,0,3.622,9.9c.035-1.556-.08-3.124-.036-4.678.049-1.745.283-3.464.279-5.213,0-.009.016-.014.017,0,.145,1.84.586,3.657.727,5.5.136,1.782.306,3.591.279,5.369-.042,2.748-1.016,6.749-4.137,7.281-.823.14-.983-.889-.414-1.276" transform="translate(104.815 85.249)"/><path d="M.89,3.28A5.857,5.857,0,0,1,6.222,0c.09,0,.085.146.01.164A6.825,6.825,0,0,0,1.695,3.845a8.173,8.173,0,0,0-.018,5.929.526.526,0,0,1-.958.426A7.918,7.918,0,0,1,.89,3.28" transform="translate(112.501 99.923)"/><path d="M0,7.974A14.947,14.947,0,0,1,1.977.048a.1.1,0,0,1,.176.085,17.86,17.86,0,0,0,.26,13.737,16.612,16.612,0,0,0,9.856,8.755,16.136,16.136,0,0,0,3.415.731H15.7a18.11,18.11,0,0,0,2.9.632,9.26,9.26,0,0,0,1.659.3,1.231,1.231,0,0,1-.755,1.2,12.354,12.354,0,0,1-7.162-.438,18.1,18.1,0,0,1-6.369-3.687A18.767,18.767,0,0,1,0,7.974" transform="translate(118.091 187.967)"/><path d="M.173,14.861C-.654,8.938,1.471,2.32,6.869.4A7.292,7.292,0,0,1,13.9,1.694,8.3,8.3,0,0,1,16.726,9.1c-.351,3.886-2.046,7.384-2.9,11.1-.024.1-.163.063-.138-.044.365-1.583.555-3.23.81-4.845.22-1.39.522-2.756.742-4.146.4-2.521.553-5.248-1.295-7.318a6.216,6.216,0,0,0-5.819-2A7.965,7.965,0,0,0,2.906,6.3a21.1,21.1,0,0,0-1.728,8.426c-.028.582-.9.86-1.005.14" transform="translate(110.405 178.884)"/><path d="M.086,18.61a6.368,6.368,0,0,0,1.289-.715.479.479,0,0,1,.063-.571,22.788,22.788,0,0,0,3.569-4.4,19.436,19.436,0,0,0,1.277-2.488c.21-1.092.425-2.183.6-3.283-.009-.107-.017-.214-.026-.321a.667.667,0,0,1-.472-.55C6.2,5.3,5.942,4.351,5.742,3.38a.885.885,0,0,1,0-.393L5.668,2.6c-.193-.4-.4-.792-.615-1.184C4.576.551,5.774-.527,6.437.291A10.225,10.225,0,0,1,7.6,2.092c.038-.563.762-.953,1.09-.311.2.392.406.782.612,1.172,1.016-.935,2.615-1.569,3.866-.68a.658.658,0,0,1-.334,1.158,5.509,5.509,0,0,0-1.786.146A3.319,3.319,0,0,0,9.57,4.591,3.239,3.239,0,0,0,8.858,6.3a14.164,14.164,0,0,1,.108,1.679,6.428,6.428,0,0,0,.24.8c1.261,3.384,4.6,4.964,7.515,6.131.08.032.054.171-.027.164-2.984-.232-6.306-1.511-8-4.286a11.683,11.683,0,0,1-.414,1.5,11.117,11.117,0,0,1-3.242,4.843,7.645,7.645,0,0,1-2.3,1.349,9.451,9.451,0,0,1-2.634.39c-.148.011-.117-.218-.015-.256" transform="translate(85.249 142.548)"/><path d="M.095,9.268a13,13,0,0,0,2.8-1.046A6.74,6.74,0,0,0,5.036,6.144,9.1,9.1,0,0,0,6.178.671.6.6,0,0,1,7.364.5,8.191,8.191,0,0,1,5.9,7.117,6.631,6.631,0,0,1,2.091,9.625,9.547,9.547,0,0,1,4,10.414a12.306,12.306,0,0,1,3.541,2.955,12.837,12.837,0,0,1,2.82,9.782c-.107.735-1.127.884-1.1-.01A14,14,0,0,0,6.57,14.262,11.519,11.519,0,0,0,3.516,11.5,12.482,12.482,0,0,0,1.7,10.558c-.45-.185-1.225-.367-1.512-.832A.1.1,0,0,1,.21,9.595l.018-.012c-.049-.014-.1-.027-.147-.043C-.048,9.5-.007,9.3.095,9.268" transform="translate(127.874 119.489)"/><path d="M.067.54a5.957,5.957,0,0,1,4.5-.2A12.2,12.2,0,0,1,9.008,2.709,13.326,13.326,0,0,1,11.7,5.83a.617.617,0,0,1,.187.136,15.234,15.234,0,0,1,1.068,1.3.462.462,0,0,1,.712-.116.543.543,0,0,1,.623.015c.534.374,1.1.616,1.085,1.4a1.688,1.688,0,0,1-.77,1.387l-.012.007a4.218,4.218,0,0,1-.506,2.1.924.924,0,0,1-.357.353c0,.211,0,.421-.01.631-.047.956-1.425,1.391-1.619.228A15.512,15.512,0,0,0,7.863,4.365,11.156,11.156,0,0,0,4.111,1.989C2.783,1.488,1.4,1.312.083.8A.154.154,0,0,1,.067.54" transform="translate(99.224 174.691)"/><path d="M.434,1.891A1.035,1.035,0,0,1,1.444.1c3.421,1.775,5.879,5.25,7.221,8.982A15.189,15.189,0,0,1,8.77,20.235a.053.053,0,0,1-.1-.032,20,20,0,0,0-1.44-10.46,18.271,18.271,0,0,0-6.8-7.852" transform="translate(103.417 125.079)"/><path d="M.069,9.7A10.408,10.408,0,0,1,.295,5.855,8.131,8.131,0,0,1,2.323,2.523C4.067.783,6.75-.581,9.243.25c.96.32.5,1.726-.293,1.789A8.682,8.682,0,0,0,3.417,4.05,11.212,11.212,0,0,0,1.46,6.44,7.44,7.44,0,0,0,.21,9.7a.071.071,0,1,1-.141,0" transform="translate(85.249 106.212)"/><path d="M.533.148a.206.206,0,0,1,.4.058A15.582,15.582,0,0,0,2.229,5.979a13.3,13.3,0,0,0,3.812,4.76.623.623,0,0,1-.663,1.051C1.4,9.543-1.166,4.21.533.148" transform="translate(80.358 126.476)"/><path d="M.349,0A.182.182,0,0,0,.184.152,35.052,35.052,0,0,0,.577,9.69,54.163,54.163,0,0,0,2.6,18.213a20.769,20.769,0,0,0,.089,6.127,19.881,19.881,0,0,0,4.408,9.63,21.237,21.237,0,0,0,3.723,3.453,19.256,19.256,0,0,0,2.119,1.34l.248.135a8.677,8.677,0,0,0,1.7.782,14.524,14.524,0,0,0,4.175,2.673,12.357,12.357,0,0,0,6.259.885,11.081,11.081,0,0,0,5.9-2.319.791.791,0,0,0,.219-.305,10.066,10.066,0,0,0,7.3-4.2A9.674,9.674,0,0,0,40,34.016a11,11,0,0,0,.391-1.342,3.532,3.532,0,0,0,.069-.571h.02a13.883,13.883,0,0,0,5.576-2.511,17.534,17.534,0,0,0,3.9-4.125,20.522,20.522,0,0,0,2.566-5.259,21.315,21.315,0,0,0,.983-5.873A18.7,18.7,0,0,0,52.985,8.6a3.569,3.569,0,0,0,1.151-.454.886.886,0,0,0,.36-.816.706.706,0,0,0-.445-.6,2.054,2.054,0,0,0-.768-.136,6.666,6.666,0,0,0-2.181.537l-.2.075a10.9,10.9,0,0,0-2.813,1.486,11.884,11.884,0,0,0-2.334,2.2c-.056.072-.117.148-.18.228a4.422,4.422,0,0,0-1.209,2.355.067.067,0,0,0,.018.047.04.04,0,0,0,.029.013l.014,0a2.071,2.071,0,0,0,.686-.52c.066-.066.134-.133.2-.2.124-.114.248-.232.368-.347.228-.218.464-.443.711-.647a15.224,15.224,0,0,1,2.343-1.65A16.13,16.13,0,0,1,51.19,9.047c.049.488.132.982.211,1.459.091.55.186,1.118.232,1.683a20.4,20.4,0,0,1,.009,3A19.982,19.982,0,0,1,48.311,25.2a19.691,19.691,0,0,1-3.53,3.885,22.282,22.282,0,0,1-4.306,2.86,5.263,5.263,0,0,1,.048-.528.065.065,0,0,0-.011-.054.058.058,0,0,0-.045-.019.08.08,0,0,0-.076.053,5.091,5.091,0,0,1-.439.886c-.078.136-.152.264-.219.392a11.069,11.069,0,0,1-.6,1.016,13.371,13.371,0,0,1-1.459,1.848,9.642,9.642,0,0,1-3.718,2.512,9.974,9.974,0,0,1-4.664.462,17.054,17.054,0,0,1-4.507-1.5.592.592,0,0,0-.243-.057.557.557,0,0,0-.5.409.958.958,0,0,0,.179,1.019A8.72,8.72,0,0,0,28.577,40.5a8.483,8.483,0,0,1-.847.359,11.341,11.341,0,0,1-2.717.619c-.406.039-.819.059-1.228.059a12.653,12.653,0,0,1-4.379-.772,11.933,11.933,0,0,1-1.109-.476,7.352,7.352,0,0,0,1.151.093c.075,0,.15,0,.224,0a6.605,6.605,0,0,0,1.524-.211,1.823,1.823,0,0,0,.641-.29A.959.959,0,0,0,22,39.7a.712.712,0,0,1,.179-.186.253.253,0,0,0,.082-.265.138.138,0,0,0-.136-.111h-.029a.467.467,0,0,1-.2-.065A.886.886,0,0,0,21.735,39a1.094,1.094,0,0,0-.293-.033c-.064,0-.129,0-.192.006l-.128.005c-.157,0-.278.006-.392.006a6.086,6.086,0,0,1-.995-.07,8.469,8.469,0,0,1-2.487-.852,9.822,9.822,0,0,1-1.58-1.007,65.74,65.74,0,0,1-4.926-6.24A60.873,60.873,0,0,1,3.556,16.173a54.385,54.385,0,0,1-2.061-7.94C1.182,6.5.987,4.739.8,3.033.691,2.076.582,1.087.453.115.443.042.405,0,.349,0ZM12.614,37c-.547-.333-1.042-.662-1.513-1.008A20.451,20.451,0,0,1,2.856,19a54.917,54.917,0,0,0,2.8,6.722,51.618,51.618,0,0,0,5.909,9.338A14.46,14.46,0,0,0,12.614,37Z" transform="translate(128.57 108.308) rotate(180)"/><path d="M.062.19a5.92,5.92,0,0,1,5,.919A6.527,6.527,0,0,1,6.952,3.192c.449.78,1.014,1.952.578,2.784a.541.541,0,0,1-.775.219C6.2,5.715,6.161,4.746,5.83,4.087A7.584,7.584,0,0,0,4.464,2.212,5.589,5.589,0,0,0,.093.361C-.014.377-.034.212.062.19" transform="translate(96.429 73.37)"/><path d="M5.737,24c-.145-1.036-.175-2.092-.292-3.132q-.164-1.467-.4-2.926c-.319-2.009-.729-4.007-1.225-5.983-.5-2-1.106-3.975-1.775-5.928S.585,2.171,0,.2C-.028.088.135-.084.227.048a26.453,26.453,0,0,1,2.748,5.5,57.929,57.929,0,0,1,1.972,5.984,61.821,61.821,0,0,1,1.342,6.1,37.73,37.73,0,0,1,.7,6.216c0,.663-1.147.88-1.251.146" transform="translate(135.56 125.079)"/><path d="M1.3,32.321a14.126,14.126,0,0,0,16.556-2.289,13.327,13.327,0,0,0,3.8-7.718c.436-3.387-.284-6.825-1.094-10.107-.508-2.058-1.094-4.1-1.739-6.122-.324-1.015-.674-2.021-1.026-3.027A28.533,28.533,0,0,1,16.816.081c-.012-.053.076-.114.112-.06a16.508,16.508,0,0,1,1.3,2.582c.4.907.761,1.833,1.116,2.758q1.083,2.823,1.945,5.718c1.038,3.478,1.978,7.071,1.731,10.723A15.1,15.1,0,0,1,11.146,35.31a15.9,15.9,0,0,1-10.812-1.6c-.857-.47.107-1.857.967-1.384" transform="translate(136.259 182.377)"/><path d="M6.539,25.266A49.506,49.506,0,0,0,2.559,5.482C1.793,3.707.9,1.989.016.273-.068.11.2-.107.316.06a38.449,38.449,0,0,1,4.611,9.2,46.918,46.918,0,0,1,2.4,10.089,43.182,43.182,0,0,1,.352,5.928.572.572,0,1,1-1.144-.013" transform="translate(125.777 89.442)"/><path d="M.1,9.47A12.656,12.656,0,0,1,.023,7,14.6,14.6,0,0,1,.3,4.467,13.484,13.484,0,0,1,.989,2.121,21.112,21.112,0,0,1,2.081,0,.008.008,0,0,1,2.1.012,15.936,15.936,0,0,0,.857,4.557,17.863,17.863,0,0,0,.666,6.833a23.579,23.579,0,0,0,.2,2.43c.043.5-.671.769-.771.207" transform="translate(118.091 166.306)"/><path d="M.115,5.551A14.322,14.322,0,0,1,16.042.806a15.3,15.3,0,0,1,4.21,2.407c.032.025-.005.085-.038.062a14.5,14.5,0,0,0-10-2.558A15,15,0,0,0,.544,6.154C.2,6.567-.2,5.935.115,5.551" transform="translate(109.007 111.103)"/><path d="M.184,13.224a9.583,9.583,0,0,0,2.485-2.3A8.943,8.943,0,0,0,4.035,7.889,18.848,18.848,0,0,0,3.945.023c0-.022.034-.033.039-.009.586,2.746,1.3,5.461.652,8.262a8.241,8.241,0,0,1-4,5.646.415.415,0,0,1-.449-.7" transform="translate(115.995 87.345)"/><path d="M.331.452A9.81,9.81,0,0,1,2.768.675Q3.538.8,4.3.963A.444.444,0,0,1,4.332.814.43.43,0,0,1,4.771.335c.225.03.451.059.677.088a.559.559,0,0,1,.659-.4c.221.059.444.113.666.168a.523.523,0,0,1,.645-.1C8.146.5,8.873.919,9.581,1.371a.45.45,0,0,1-.01.749q.711.227,1.409.484a.4.4,0,0,1,.077.69A30.5,30.5,0,0,1,14.382,5.17a15.815,15.815,0,0,1,3.779,3.16c.022.027-.014.067-.045.05C16.708,7.613,15.4,6.659,14.01,5.854A37.228,37.228,0,0,0,9.544,3.661,37.73,37.73,0,0,0,4.965,2.1c-.778-.209-1.559-.405-2.35-.567a19.828,19.828,0,0,1-2.433-.49C-.165.924.04.481.331.452" transform="translate(116.694 152.331)"/><path d="M.512,16.453a24.157,24.157,0,0,1-.5-4.109A24.554,24.554,0,0,1,1.027,4.3c.225-.731.485-1.449.778-2.148A8.149,8.149,0,0,1,2.881.137c.291-.357.715.05.591.458-.242.8-.668,1.53-.973,2.3-.291.73-.547,1.479-.766,2.241a27.675,27.675,0,0,0-.964,4.959,26.376,26.376,0,0,0,0,5.049,23.648,23.648,0,0,0,.977,5.075c.012.035-.036.07-.05.031A25.416,25.416,0,0,1,.512,16.453" transform="translate(71.973 146.042)"/><path d="M.228,16.923C1.586,15.8,3.044,14.84,4.35,13.631A38.458,38.458,0,0,0,8.08,9.68,44.321,44.321,0,0,0,13.922.019c.015-.033.064-.021.051.019A33.854,33.854,0,0,1,8.82,10.274,34.687,34.687,0,0,1,5.244,14.46,22.726,22.726,0,0,1,.872,18.09c-.659.378-1.194-.712-.645-1.167" transform="translate(194.256 190.763)"/><path d="M.657,4.51a.739.739,0,0,1,.428-.739A.91.91,0,0,1,1.523,3.7,2.665,2.665,0,0,0,.376,1.521c-.725-.44-.3-1.688.4-1.5,1.243.331,2.011,2.7,1.369,3.966A2.064,2.064,0,0,1,2.641,6.25c-.029.065-.1.045-.118-.03a1.375,1.375,0,0,0-1.4-1.065C.862,5.182.663,4.8.657,4.51" transform="translate(194.955 206.834)"/><path d="M19.694,7.114c-1.666-.255-3.322-.322-4.988-.671a37.382,37.382,0,0,1-5.014-1.4A43.844,43.844,0,0,1,.043.006C.014-.014-.018.02.012.047a33.643,33.643,0,0,0,9.4,5.842,33.846,33.846,0,0,0,5.013,1.67,21.825,21.825,0,0,0,5.361.825c.721-.014.585-1.167-.088-1.27" transform="translate(108.308 218.713)"/><path d="M.5,18.606a36.735,36.735,0,0,1,6.419-1.892c2.18-.581,4.343-1.236,6.513-1.858L26.45,11.122c8.631-2.475,17.254-4.984,25.9-7.394,2.418-.674,4.84-1.334,7.261-2A44.613,44.613,0,0,1,66.832,0c.337-.033.3.481.07.6a42.192,42.192,0,0,1-6.25,2.149c-2.164.662-4.334,1.309-6.5,1.963-4.328,1.307-8.674,2.554-13.013,3.823Q28.2,12.315,15.255,16.079q-3.624,1.054-7.248,2.109c-2.393.7-4.833,1.8-7.315,2.071-.932.1-.844-1.342-.2-1.653" transform="translate(127.175 207.533)"/><path d="M.576,15.784a.623.623,0,0,1,1.007.172c.272.68-.087,1.449.108,2.173a3.958,3.958,0,0,0,1.332,1.895.468.468,0,0,1,.05.054.787.787,0,0,1,.205-.158,35.1,35.1,0,0,1,6.4-2.007q3.248-.944,6.488-1.916,6.484-1.934,12.96-3.9c8.582-2.6,17.149-5.257,25.722-7.888q3.6-1.1,7.2-2.191A51.546,51.546,0,0,1,69.413.006a.422.422,0,0,1,.206.81A44.966,44.966,0,0,1,63.4,3.139c-2.144.722-4.289,1.441-6.44,2.141-4.3,1.4-8.595,2.787-12.906,4.137q-12.923,4.047-25.884,7.97Q14.487,18.5,10.8,19.616c-1.18.357-2.357.725-3.534,1.093a18.012,18.012,0,0,1-3.782.949c-.548.048-.76-.364-.732-.807a.5.5,0,0,1-.165-.006A3.363,3.363,0,0,1,.369,18.837c-.393-.886-.659-2.363.208-3.053" transform="translate(127.175 210.328)"/><path d="M.166,6.645c-.042-.956-.083-1.913-.1-2.87A12.888,12.888,0,0,1,.2.134c.04-.145.3-.192.364-.041A12.282,12.282,0,0,1,1.141,3.84c.1,1.048.177,2.1.257,3.147A2.42,2.42,0,0,0,.166,6.645" transform="translate(192.16 211.725)"/><path d="M0,1.352c.09-.088.178-.179.261-.277A3.672,3.672,0,0,0,.9,0Q.94.889.984,1.777c.123,2.529.254,5.058.365,7.588L1.4,10.481a4.973,4.973,0,0,0-.883-1,1.061,1.061,0,0,0-.233-.153C.182,6.818.1,4.31.015,1.8.01,1.652.005,1.5,0,1.352" transform="translate(192.859 225.701)"/><path d="M2.583,6.633c-.049.115-.091.234-.13.354-.361-.915-.721-1.829-1.093-2.738A26.7,26.7,0,0,1,.012.6C-.094.175.525-.222.806.145A19.912,19.912,0,0,1,2.672,3.5q.413.839.821,1.682a1.559,1.559,0,0,0-.911,1.455" transform="translate(132.765 229.893)"/><path d="M5.044,7.38a3.411,3.411,0,0,0-1.982.306Q2.246,5.55,1.4,3.426.718,1.726,0,.042A3.31,3.31,0,0,0,2.1.085C2.183.06,2.267.031,2.351,0Q2.928,1.259,3.49,2.524C4.2,4.135,4.912,5.766,5.59,7.412a2.154,2.154,0,0,0-.546-.032" transform="translate(136.958 241.074)"/><path d="M1.329.8A1.977,1.977,0,0,0,1.5.644,2.159,2.159,0,0,0,2.365,0C3.041,1.707,3.66,3.428,4.192,5.158A1.051,1.051,0,0,1,4.5,6.975l-.43.407a1.217,1.217,0,0,1-1.843-.26C1.416,5.188.728,3.217,0,1.259A2.368,2.368,0,0,0,1.329.8" transform="translate(141.15 251.555)"/><path d="M.619,12.561c1.326-.878,3.174-1.107,4.685-1.523,1.582-.436,3.163-.876,4.748-1.3L19.4,7.206C25.681,5.51,31.97,3.84,38.275,2.256c1.784-.448,3.564-.924,5.359-1.328A31.786,31.786,0,0,1,48.778,0c.18-.01.167.256.041.322a55.146,55.146,0,0,1-9.154,3.214c-3.1.958-6.208,1.88-9.317,2.807q-9.389,2.8-18.8,5.517-2.664.772-5.334,1.528L3.7,14.105a8.374,8.374,0,0,1-2.811.561c-1.2-.08-1.071-1.572-.266-2.105" transform="translate(147.439 252.952)"/><path d="M.107.1A1.938,1.938,0,0,0,1.4.543c0,.416,0,.832-.015,1.247C1.376,2.026,1.117,2.219,1,2,.867,1.756.748,1.5.617,1.254A3.376,3.376,0,0,0,.272.584.991.991,0,0,1,0,0C.035.034.069.069.107.1" transform="translate(146.042 264.831)"/><path d="M.326,20.021c1.093-1.045,2.82-1.569,4.183-2.209l4.322-2.029c2.881-1.353,5.772-2.683,8.66-4.022Q26.15,7.748,34.878,3.876A77.851,77.851,0,0,1,44.629,0c.113-.033.115.118.045.165a74.407,74.407,0,0,1-8.4,4.651Q32,6.962,27.71,9.06q-8.581,4.2-17.214,8.3L5.761,19.594,3.254,20.78a7.431,7.431,0,0,1-2.484.877c-.947.093-.926-1.174-.444-1.635" transform="translate(149.535 243.17)"/><path d="M.65,23.079a33.192,33.192,0,0,1,4.638-2.386l4.671-2.305,9.343-4.61c6.181-3.05,12.362-6.1,18.579-9.082,1.749-.838,3.5-1.671,5.26-2.483a38.739,38.739,0,0,1,5.326-2.2c.41-.12.6.476.292.7A67.017,67.017,0,0,1,39.8,5.753Q35.171,8.147,30.516,10.5q-9.375,4.733-18.762,9.439L6.548,22.549a36.22,36.22,0,0,1-5.362,2.568A.925.925,0,0,1,.04,24.451a1.273,1.273,0,0,1,.61-1.371" transform="translate(144.644 234.785)"/><path d="M.377,24.124a27.113,27.113,0,0,1,4.886-2.589l4.851-2.386q4.921-2.421,9.841-4.841Q29.8,9.488,39.7,4.772q2.784-1.331,5.595-2.609c.887-.406,1.78-.807,2.68-1.187A13.146,13.146,0,0,1,50.8,0a.18.18,0,0,1,.139.323,23.163,23.163,0,0,1-4.562,2.8c-1.583.865-3.187,1.7-4.79,2.531q-4.873,2.523-9.775,5-9.8,4.934-19.623,9.821L6.656,23.228,4.028,24.536A14.651,14.651,0,0,1,1.1,25.822c-1.047.259-1.476-1.108-.728-1.7" transform="translate(143.247 227.098)"/><path d="M.378,28.866a33.921,33.921,0,0,1,5.28-3.083q2.543-1.406,5.085-2.816l10.435-5.79C28.041,13.371,34.894,9.54,41.822,5.846,43.8,4.792,45.769,3.729,47.76,2.7A29.367,29.367,0,0,1,53.609.007c.2-.052.252.2.132.312a28.431,28.431,0,0,1-4.928,3.314c-1.664,1.006-3.34,1.991-5.018,2.976-3.437,2.017-6.9,3.993-10.357,5.973C26.617,16.487,19.76,20.335,12.915,24.2q-2.933,1.657-5.865,3.317L4.12,29.18a17.31,17.31,0,0,1-2.969,1.508c-1.127.38-1.509-1.215-.773-1.822" transform="translate(139.054 218.014)"/><path d="M.587,24.543c2.911-1.9,6.121-3.425,9.178-5.086s6.142-3.331,9.219-4.989C25.043,11.2,31.1,7.94,37.209,4.768c1.7-.885,3.408-1.769,5.127-2.628.9-.451,1.811-.891,2.721-1.329A6.454,6.454,0,0,1,47.407,0c.1-.007.138.129.084.2-.94,1.19-2.57,1.934-3.859,2.7q-2.294,1.365-4.608,2.7-4.556,2.615-9.135,5.189c-6,3.392-12.05,6.7-18.093,10.019l-5.063,2.78c-1.771.972-3.517,2.022-5.363,2.847C.012,27.036-.5,25.252.587,24.543" transform="translate(136.958 215.918)"/><path d="M2.118,11.537a.409.409,0,0,1,.227-.025,20.5,20.5,0,0,1,2.543-1.357L7.842,8.626c2.013-1.042,4.04-2.057,6.063-3.079,1.978-1,3.955-2,5.944-2.972C21.764,1.639,23.712.426,25.8,0c.05-.01.066.052.034.083a27.814,27.814,0,0,1-5.406,3.537c-1.966,1.158-3.945,2.293-5.924,3.427C12.574,8.156,10.645,9.271,8.7,10.359L5.787,11.991a14.925,14.925,0,0,1-3.053,1.592.822.822,0,0,1-.62-.051,3.2,3.2,0,0,0-.174.543,3.658,3.658,0,0,0,.1,1.981,3.325,3.325,0,0,0,1.082,1.5c.542.422,1.384.536,1.769,1.117a1,1,0,0,1-.35,1.412c-.944.481-1.974-.112-2.72-.749A5.181,5.181,0,0,1,.152,16.722c-.465-1.768.124-4.463,1.966-5.184" transform="translate(133.464 222.906)"/><path d="M1.7.107c.675-.4,1.059.413.78.9a2.351,2.351,0,0,0,0,2.887,2.539,2.539,0,0,0,1.25.768,4.3,4.3,0,0,1,1.511.422.88.88,0,0,1,0,1.413C3.7,7.791,1.18,6.282.416,4.865A3.621,3.621,0,0,1,1.7.107" transform="translate(137.656 247.362)"/><path d="M1.351.167a.54.54,0,0,1,.883.588,5.7,5.7,0,0,0-.365,3.134,1.23,1.23,0,0,0-.058.744c.007.023.015.046.023.069a1.425,1.425,0,0,0,0,.47A2.706,2.706,0,0,0,3.089,7.051a3.566,3.566,0,0,0,2.331.38,1.29,1.29,0,0,0,.813-.448c1.246.08.82,2.018-.354,2.091A5.645,5.645,0,0,1,.61,6.126,5.184,5.184,0,0,1,1.351.167" transform="translate(143.247 257.844)"/><path d="M.085,9.737c.458-.681,1.527-.994,2.134-1.591a3.949,3.949,0,0,0,1.209-2.36,3.618,3.618,0,0,0-.645-2.342A8.128,8.128,0,0,0,.692,1.661C-.163,1.024.6-.155,1.645.017,4.378.467,5.911,3.7,5.533,5.909A5.535,5.535,0,0,1,3.622,9.177c-.709.605-2.443,1.762-3.457,1.112a.374.374,0,0,1-.08-.552" transform="translate(192.859 234.086)"/><path d="M1.222,10.511a4.148,4.148,0,0,1,1.059-.954A6.089,6.089,0,0,0,3.306,8.437,4,4,0,0,0,4.123,5.98C4.042,4.044,2.48,2.764.677,2.063-.676,1.537.209-.163,1.5.013A5.963,5.963,0,0,1,6.287,5.94,5.7,5.7,0,0,1,4.7,9.627c-.684.714-2.3,1.984-3.4,1.407-.209-.109-.162-.365-.073-.523" transform="translate(191.461 216.617)"/><path d="M.346,8.452A4.987,4.987,0,0,1,.208,7.229a.7.7,0,0,1,.111-.372A60.814,60.814,0,0,1,.034.307C.05.053.514-.157.608.159A68.513,68.513,0,0,1,1.85,6.975a5.008,5.008,0,0,1,.222,1.031C2.32,9.033.627,9.593.346,8.452" transform="translate(193.558 245.266)"/><path d="M.029,10.373c-.292-1.144,1.713-2.144,2.124-.861a7.906,7.906,0,0,0,5.189,5.013c2.769.948,5.792.657,8.622.173,5.769-.985,12.581-1.939,16.708-6.537A10.536,10.536,0,0,0,35.436.24c-.016-.181.257-.355.345-.14a7.052,7.052,0,0,1,.463,3.894,11.421,11.421,0,0,1-1.4,3.893,14.732,14.732,0,0,1-7.175,6.084,48.637,48.637,0,0,1-10.477,2.8c-3.315.621-6.823,1.118-10.131.185C3.826,16.04.886,13.731.029,10.373" transform="translate(153.029 256.446)"/><path d="M.133,18.087a8.65,8.65,0,0,1,1.7-1.322c.68-.346,1.354-.713,2.045-1.037C5.3,15.059,6.761,14.456,8.2,13.82l8.506-3.754c5.809-2.564,11.778-4.745,17.75-6.9,1.632-.589,3.256-1.2,4.906-1.736l2.462-.8C43.012.244,44.267-.3,45.513.2a3.229,3.229,0,0,1,1.328,4.984A4.727,4.727,0,0,1,45,6.8c-.507.231-1.047.406-1.573.591l-2.165.764c-1.487.525-2.981,1.016-4.485,1.493-2.945.933-5.883,1.887-8.848,2.756-2.9.851-5.793,1.732-8.737,2.439l-8.924,2.142L5.292,18.18c-.828.2-1.662.346-2.5.5a7.8,7.8,0,0,1-1.131.189A11.23,11.23,0,0,1,.3,18.707a.346.346,0,0,1-.162-.62" transform="translate(225.002 99.923)"/><path d="M0,4.028A4.854,4.854,0,0,1,.778,1.492,3.272,3.272,0,0,1,4.289.13c2.2.833,2.474,2.865,3,4.817L8.483,9.4l2.393,8.914c1.626,6.06,3.279,12.136,4.479,18.289.177.91,1.548,8.943-.051,8.811-.526-.043-.782-.41-1.084-.791a10.955,10.955,0,0,1-1.352-1.935c-.634-1.3-1.261-2.627-1.827-3.958-1.167-2.742-2.1-5.594-3.007-8.422Q5.3,21.819,2.649,13.306L1.151,8.5C.909,7.722.656,6.948.426,6.168A7.6,7.6,0,0,1,0,4.028" transform="translate(97.827 0)"/><path d="M1.339,20.918a51.78,51.78,0,0,1,2.839-6.512l3.16-6.421c1.2-2.438,2.181-5.24,4.138-7.228A3,3,0,0,1,14.621.228a2.457,2.457,0,0,1,1.424,2.6A11.732,11.732,0,0,1,14.529,6.6l-1.714,3.25L9.458,16.216a57.149,57.149,0,0,1-3.869,6.6C4.24,24.708,2.982,26.838.731,27.9a.376.376,0,0,1-.556-.253c-.594-2.285.453-4.583,1.163-6.732" transform="translate(167.703 7.686)"/><path d="M.43,21.039A105.862,105.862,0,0,1,14.6,11.751c4.883-2.693,9.813-5.277,14.767-7.837L33.45,1.8C35.094.953,36.972-.116,38.856.01a2.655,2.655,0,0,1,1.813,4.32,6.95,6.95,0,0,1-2.2,2.07c-.617.371-1.226.748-1.87,1.071L32.764,9.388l-7.392,3.7c-4.97,2.486-10.034,4.736-15.152,6.9a71.267,71.267,0,0,1-8.976,3.032C.062,23.341-.42,21.7.43,21.039" transform="translate(201.244 46.817)"/><path d="M1.537.409C3.346-.476,5.256.286,7.1.719L11.57,1.771c2.877.676,5.738,1.422,8.6,2.144l8.6,2.167c1.476.372,2.983.69,4.432,1.158a12.052,12.052,0,0,1,4.155,1.78,1.157,1.157,0,0,1-.492,1.964,12.89,12.89,0,0,1-4.567-.048c-1.584-.167-3.157-.492-4.727-.76l-8.841-1.51c-2.945-.5-5.9-.979-8.834-1.528l-4.547-.85C3.729,5.985,1.543,5.97.48,4.531A2.885,2.885,0,0,1,1.537.409" transform="translate(23.758 83.153)"/><path d="M0,10.759A4.149,4.149,0,0,1,1.229,7.926,5.27,5.27,0,0,1,4.806,6.375l2.746-.43c1.779-.279,3.557-.569,5.34-.821l10.7-1.512C30.9,2.578,38.222,1.686,45.545.774,47.561.523,49.571.352,51.6.2,53.452.067,55.87-.363,57.53.687c.736.466.5,1.548-.014,2.06-1.354,1.34-3.544,1.749-5.321,2.186-1.759.433-3.512.9-5.289,1.246L36.278,8.249c-7.132,1.389-14.288,2.64-21.44,3.911-2.028.36-4.06.692-6.093,1.022l-2.9.47c-1.585.257-3.269.735-4.655-.392A3.041,3.041,0,0,1,0,10.759" transform="translate(0 154.427)"/></svg>